<svg width="33.456451" height="38.000000" viewBox="0 0 33.4565 38" fill="none" xmlns="http://www.w3.org/2000/svg" xmlns:xlink="http://www.w3.org/1999/xlink">
	<desc>
			Created with Pixso.
	</desc>
	<defs/>
	<path id="Vector" d="M32.5603 11.875C33.0532 11.875 33.4565 11.4742 33.4565 10.9844L33.4565 8.01562C33.4565 7.52576 33.0532 7.125 32.5603 7.125L31.0667 7.125L31.0667 3.5625C31.0667 1.5957 29.4611 0 27.4821 0L3.58463 0C1.60562 0 0 1.5957 0 3.5625L0 34.4375C0 36.4043 1.60562 38 3.58463 38L27.4821 38C29.4611 38 31.0667 36.4043 31.0667 34.4375L31.0667 30.875L32.5603 30.875C33.0532 30.875 33.4565 30.4742 33.4565 29.9844L33.4565 27.0156C33.4565 26.5258 33.0532 26.125 32.5603 26.125L31.0667 26.125L31.0667 21.375L32.5603 21.375C33.0532 21.375 33.4565 20.9742 33.4565 20.4844L33.4565 17.5156C33.4565 17.0258 33.0532 16.625 32.5603 16.625L31.0667 16.625L31.0667 11.875L32.5603 11.875ZM15.5334 9.5C18.1695 9.5 20.3128 11.6301 20.3128 14.25C20.3128 16.8699 18.1695 19 15.5334 19C12.8972 19 10.7538 16.8699 10.7538 14.25C10.7538 11.6301 12.8972 9.5 15.5334 9.5ZM23.8975 27.075C23.8975 27.8617 23.1507 28.5 22.2246 28.5L8.84207 28.5C7.91605 28.5 7.16925 27.8617 7.16925 27.075L7.16925 25.65C7.16925 23.2898 9.41708 21.375 12.1877 21.375L12.5611 21.375C13.4797 21.7535 14.4804 21.9688 15.5334 21.9688C16.5863 21.9688 17.5945 21.7535 18.5056 21.375L18.879 21.375C21.6496 21.375 23.8975 23.2898 23.8975 25.65L23.8975 27.075Z" fill="#316099" fill-opacity="1.000000" fill-rule="nonzero"/>
</svg>
